<svg xmlns="http://www.w3.org/2000/svg" xmlns:xlink="http://www.w3.org/1999/xlink" version="1.1" x="0px" y="0px" style="enable-background:new 0 0 200 200;" xml:space="preserve" viewBox="0.55 21.52 198.92 157.25">
<style type="text/css">
	.st0{display:none;}
	.st1{display:inline;}
	.st2{fill:none;stroke:#242424;stroke-width:6.3408;stroke-miterlimit:10;}
	.st3{fill:none;stroke:#242424;stroke-width:6.2241;stroke-miterlimit:10;}
	.st4{fill:none;stroke:#242424;stroke-width:6.1694;stroke-miterlimit:10;}
	.st5{fill:none;stroke:#242424;stroke-width:6.1163;stroke-miterlimit:10;}
	.st6{fill:none;stroke:#242424;stroke-width:5.8478;stroke-miterlimit:10;}
	.st7{display:none;fill:#242424;}
	.st8{fill:none;stroke:#242424;stroke-width:6.6731;stroke-miterlimit:10;}
	.st9{fill:none;stroke:#242424;stroke-width:6.5503;stroke-miterlimit:10;}
	.st10{fill:none;stroke:#242424;stroke-width:6.4927;stroke-miterlimit:10;}
	.st11{fill:none;stroke:#242424;stroke-width:6.4369;stroke-miterlimit:10;}
	.st12{fill:none;stroke:#242424;stroke-width:6.1543;stroke-miterlimit:10;}
	.st13{fill:#242424;}
</style>
<g id="Variant_1" class="st0">
	<g class="st1">
		<path d="M100,94.2c0,0-15.7,5.8-16.1,23.8h-9.3c0,0-0.9-32.2,34.8-34.8V118h-9.2L100,94.2z"/>
		<path d="M109.4,80.7v-9.5H62.8v9.5h18.7c0,0-18.6,12.1-18.7,37.3h9.1C71.9,118,72.6,82.4,109.4,80.7z"/>
		<g>
			<path d="M113.2,112.5h0.6v5h3.1v0.6h-3.8V112.5z"/>
			<path d="M123.3,116.3c-0.1,0.3-0.3,0.7-0.6,0.9c-0.3,0.3-0.5,0.5-0.9,0.6c-0.4,0.2-0.7,0.2-1.2,0.2s-0.8-0.1-1.2-0.2     c-0.3-0.2-0.6-0.4-0.9-0.6c-0.3-0.3-0.4-0.6-0.6-0.9c-0.1-0.3-0.2-0.7-0.2-1.1s0.1-0.8,0.2-1.1c0.1-0.3,0.3-0.7,0.6-0.9     s0.5-0.5,0.9-0.6c0.4-0.2,0.7-0.2,1.2-0.2c0.4,0,0.8,0.1,1.2,0.2c0.3,0.2,0.6,0.4,0.9,0.6c0.3,0.3,0.4,0.6,0.6,0.9     s0.2,0.7,0.2,1.1C123.6,115.6,123.5,116,123.3,116.3z M122.7,114.4c-0.1-0.3-0.3-0.5-0.5-0.7c-0.2-0.2-0.4-0.4-0.7-0.5     c-0.3-0.1-0.6-0.2-0.9-0.2s-0.6,0.1-0.9,0.2c-0.3,0.1-0.5,0.3-0.7,0.5s-0.3,0.5-0.5,0.7c-0.1,0.3-0.2,0.6-0.2,0.9     c0,0.3,0.1,0.6,0.2,0.9c0.1,0.3,0.3,0.5,0.5,0.7c0.2,0.2,0.4,0.4,0.7,0.5s0.6,0.2,0.9,0.2c0.3,0,0.6-0.1,0.9-0.2     c0.3-0.1,0.5-0.3,0.7-0.5c0.2-0.2,0.3-0.5,0.5-0.7c0.1-0.3,0.2-0.6,0.2-0.9S122.8,114.6,122.7,114.4z"/>
			<path d="M130.1,118h-0.7l-0.7-1.5h-3l-0.7,1.5h-0.6l2.5-5.6h0.6L130.1,118z M127.2,113.2L126,116h2.5L127.2,113.2z"/>
			<path d="M135.3,112.5h0.6v5.6h-0.5l-3.6-4.6v4.6h-0.6v-5.6h0.6l3.5,4.5V112.5z"/>
		</g>
		<g>
			<path d="M113.2,112.5h0.6v5h3.1v0.6h-3.8V112.5z"/>
			<path d="M123.3,116.3c-0.1,0.3-0.3,0.7-0.6,0.9c-0.3,0.3-0.5,0.5-0.9,0.6c-0.4,0.2-0.7,0.2-1.2,0.2s-0.8-0.1-1.2-0.2     c-0.3-0.2-0.6-0.4-0.9-0.6c-0.3-0.3-0.4-0.6-0.6-0.9c-0.1-0.3-0.2-0.7-0.2-1.1s0.1-0.8,0.2-1.1c0.1-0.3,0.3-0.7,0.6-0.9     s0.5-0.5,0.9-0.6c0.4-0.2,0.7-0.2,1.2-0.2c0.4,0,0.8,0.1,1.2,0.2c0.3,0.2,0.6,0.4,0.9,0.6c0.3,0.3,0.4,0.6,0.6,0.9     s0.2,0.7,0.2,1.1C123.6,115.6,123.5,116,123.3,116.3z M122.7,114.4c-0.1-0.3-0.3-0.5-0.5-0.7c-0.2-0.2-0.4-0.4-0.7-0.5     c-0.3-0.1-0.6-0.2-0.9-0.2s-0.6,0.1-0.9,0.2c-0.3,0.1-0.5,0.3-0.7,0.5s-0.3,0.5-0.5,0.7c-0.1,0.3-0.2,0.6-0.2,0.9     c0,0.3,0.1,0.6,0.2,0.9c0.1,0.3,0.3,0.5,0.5,0.7c0.2,0.2,0.4,0.4,0.7,0.5s0.6,0.2,0.9,0.2c0.3,0,0.6-0.1,0.9-0.2     c0.3-0.1,0.5-0.3,0.7-0.5c0.2-0.2,0.3-0.5,0.5-0.7c0.1-0.3,0.2-0.6,0.2-0.9S122.8,114.6,122.7,114.4z"/>
			<path d="M130.1,118h-0.7l-0.7-1.5h-3l-0.7,1.5h-0.6l2.5-5.6h0.6L130.1,118z M127.2,113.2L126,116h2.5L127.2,113.2z"/>
			<path d="M135.3,112.5h0.6v5.6h-0.5l-3.6-4.6v4.6h-0.6v-5.6h0.6l3.5,4.5V112.5z"/>
		</g>
		<g>
			<path d="M113.2,112.5h0.6v5h3.1v0.6h-3.8V112.5z"/>
			<path d="M123.3,116.3c-0.1,0.3-0.3,0.7-0.6,0.9c-0.3,0.3-0.5,0.5-0.9,0.6c-0.4,0.2-0.7,0.2-1.2,0.2s-0.8-0.1-1.2-0.2     c-0.3-0.2-0.6-0.4-0.9-0.6c-0.3-0.3-0.4-0.6-0.6-0.9c-0.1-0.3-0.2-0.7-0.2-1.1s0.1-0.8,0.2-1.1c0.1-0.3,0.3-0.7,0.6-0.9     s0.5-0.5,0.9-0.6c0.4-0.2,0.7-0.2,1.2-0.2c0.4,0,0.8,0.1,1.2,0.2c0.3,0.2,0.6,0.4,0.9,0.6c0.3,0.3,0.4,0.6,0.6,0.9     s0.2,0.7,0.2,1.1C123.6,115.6,123.5,116,123.3,116.3z M122.7,114.4c-0.1-0.3-0.3-0.5-0.5-0.7c-0.2-0.2-0.4-0.4-0.7-0.5     c-0.3-0.1-0.6-0.2-0.9-0.2s-0.6,0.1-0.9,0.2c-0.3,0.1-0.5,0.3-0.7,0.5s-0.3,0.5-0.5,0.7c-0.1,0.3-0.2,0.6-0.2,0.9     c0,0.3,0.1,0.6,0.2,0.9c0.1,0.3,0.3,0.5,0.5,0.7c0.2,0.2,0.4,0.4,0.7,0.5s0.6,0.2,0.9,0.2c0.3,0,0.6-0.1,0.9-0.2     c0.3-0.1,0.5-0.3,0.7-0.5c0.2-0.2,0.3-0.5,0.5-0.7c0.1-0.3,0.2-0.6,0.2-0.9S122.8,114.6,122.7,114.4z"/>
			<path d="M130.1,118h-0.7l-0.7-1.5h-3l-0.7,1.5h-0.6l2.5-5.6h0.6L130.1,118z M127.2,113.2L126,116h2.5L127.2,113.2z"/>
			<path d="M135.3,112.5h0.6v5.6h-0.5l-3.6-4.6v4.6h-0.6v-5.6h0.6l3.5,4.5V112.5z"/>
		</g>
		<g>
			<path d="M113.1,102.3v-0.6h3.6v0.5l-1.7,1.9c0.2,0,0.5,0.1,0.7,0.1c0.2,0.1,0.4,0.2,0.6,0.3s0.3,0.3,0.4,0.5s0.2,0.4,0.2,0.7     c0,0.3,0,0.5-0.1,0.7c-0.1,0.2-0.2,0.4-0.4,0.5c-0.2,0.1-0.4,0.3-0.6,0.3c-0.2,0.1-0.5,0.1-0.7,0.1c-0.5,0-0.9-0.1-1.2-0.3     c-0.3-0.2-0.6-0.4-0.9-0.7l0.5-0.4c0.2,0.3,0.5,0.5,0.7,0.6c0.3,0.1,0.6,0.2,0.9,0.2c0.2,0,0.3,0,0.5-0.1c0.1,0,0.3-0.1,0.4-0.2     c0.1-0.1,0.2-0.2,0.3-0.3c0.1-0.1,0.1-0.3,0.1-0.5c0-0.4-0.1-0.6-0.4-0.8c-0.3-0.2-0.7-0.3-1.1-0.3h-0.4l-0.1-0.4l1.8-2H113.1z"/>
			<path d="M125.3,102.8c-0.2-0.2-0.4-0.3-0.6-0.4c-0.2-0.1-0.4-0.1-0.7-0.1c-0.3,0-0.5,0.1-0.7,0.2c-0.2,0.1-0.4,0.3-0.5,0.5     c-0.1,0.2-0.2,0.5-0.3,0.8s-0.1,0.6-0.1,1c0.1-0.1,0.2-0.2,0.3-0.3s0.2-0.2,0.3-0.3c0.1-0.1,0.3-0.1,0.4-0.2     c0.2,0,0.3-0.1,0.5-0.1c0.3,0,0.5,0,0.7,0.1c0.2,0.1,0.4,0.2,0.6,0.3s0.3,0.3,0.4,0.5c0.1,0.2,0.2,0.5,0.2,0.7     c0,0.3-0.1,0.5-0.2,0.8c-0.1,0.2-0.2,0.4-0.4,0.6c-0.2,0.2-0.4,0.3-0.6,0.4c-0.2,0.1-0.5,0.1-0.8,0.1c-0.3,0-0.6-0.1-0.8-0.2     s-0.5-0.2-0.6-0.4c-0.1-0.1-0.2-0.2-0.3-0.4c-0.1-0.1-0.2-0.3-0.2-0.5c-0.1-0.2-0.1-0.4-0.1-0.6c0-0.2,0-0.5,0-0.8     c0-0.4,0.1-0.8,0.2-1.2c0.1-0.4,0.3-0.7,0.5-1c0.2-0.3,0.4-0.5,0.7-0.6c0.3-0.2,0.6-0.2,1-0.2c0.3,0,0.6,0.1,0.9,0.2     s0.5,0.3,0.8,0.5L125.3,102.8z M125.2,105.1c-0.1-0.1-0.2-0.3-0.3-0.4c-0.1-0.1-0.3-0.2-0.4-0.3c-0.2-0.1-0.4-0.1-0.6-0.1     c-0.2,0-0.4,0-0.6,0.1c-0.2,0.1-0.3,0.2-0.4,0.3c-0.1,0.1-0.2,0.2-0.3,0.4s-0.1,0.3-0.1,0.5c0,0.2,0,0.3,0.1,0.5s0.2,0.3,0.3,0.4     c0.1,0.1,0.3,0.2,0.4,0.3c0.2,0.1,0.4,0.1,0.6,0.1s0.4,0,0.6-0.1s0.3-0.2,0.4-0.3c0.1-0.1,0.2-0.3,0.3-0.4     c0.1-0.2,0.1-0.3,0.1-0.5C125.3,105.4,125.2,105.2,125.2,105.1z"/>
			<path d="M131.4,101.7h3.2v0.6h-2.7l-0.1,1.8c0.2-0.1,0.3-0.1,0.5-0.2s0.4-0.1,0.6-0.1c0.3,0,0.5,0,0.8,0.1s0.4,0.2,0.6,0.3     c0.2,0.1,0.3,0.3,0.4,0.5c0.1,0.2,0.1,0.5,0.1,0.7c0,0.3,0,0.5-0.1,0.8c-0.1,0.2-0.2,0.4-0.4,0.6c-0.2,0.2-0.4,0.3-0.6,0.4     c-0.2,0.1-0.5,0.1-0.8,0.1c-0.4,0-0.8-0.1-1.1-0.3s-0.6-0.4-0.9-0.6l0.4-0.5c0.2,0.2,0.5,0.4,0.8,0.6s0.5,0.2,0.8,0.2     c0.2,0,0.4,0,0.5-0.1c0.2-0.1,0.3-0.1,0.4-0.3c0.1-0.1,0.2-0.2,0.3-0.4s0.1-0.3,0.1-0.5c0-0.2,0-0.3-0.1-0.5s-0.2-0.3-0.3-0.4     c-0.1-0.1-0.3-0.2-0.4-0.2c-0.2-0.1-0.4-0.1-0.6-0.1c-0.2,0-0.5,0-0.6,0.1c-0.2,0.1-0.4,0.1-0.5,0.2l-0.4-0.3L131.4,101.7z"/>
		</g>
		<g>
			<path d="M113.1,102.3v-0.6h3.6v0.5l-1.7,1.9c0.2,0,0.5,0.1,0.7,0.1c0.2,0.1,0.4,0.2,0.6,0.3s0.3,0.3,0.4,0.5s0.2,0.4,0.2,0.7     c0,0.3,0,0.5-0.1,0.7c-0.1,0.2-0.2,0.4-0.4,0.5c-0.2,0.1-0.4,0.3-0.6,0.3c-0.2,0.1-0.5,0.1-0.7,0.1c-0.5,0-0.9-0.1-1.2-0.3     c-0.3-0.2-0.6-0.4-0.9-0.7l0.5-0.4c0.2,0.3,0.5,0.5,0.7,0.6c0.3,0.1,0.6,0.2,0.9,0.2c0.2,0,0.3,0,0.5-0.1c0.1,0,0.3-0.1,0.4-0.2     c0.1-0.1,0.2-0.2,0.3-0.3c0.1-0.1,0.1-0.3,0.1-0.5c0-0.4-0.1-0.6-0.4-0.8c-0.3-0.2-0.7-0.3-1.1-0.3h-0.4l-0.1-0.4l1.8-2H113.1z"/>
			<path d="M125.3,102.8c-0.2-0.2-0.4-0.3-0.6-0.4c-0.2-0.1-0.4-0.1-0.7-0.1c-0.3,0-0.5,0.1-0.7,0.2c-0.2,0.1-0.4,0.3-0.5,0.5     c-0.1,0.2-0.2,0.5-0.3,0.8s-0.1,0.6-0.1,1c0.1-0.1,0.2-0.2,0.3-0.3s0.2-0.2,0.3-0.3c0.1-0.1,0.3-0.1,0.4-0.2     c0.2,0,0.3-0.1,0.5-0.1c0.3,0,0.5,0,0.7,0.1c0.2,0.1,0.4,0.2,0.6,0.3s0.3,0.3,0.4,0.5c0.1,0.2,0.2,0.5,0.2,0.7     c0,0.3-0.1,0.5-0.2,0.8c-0.1,0.2-0.2,0.4-0.4,0.6c-0.2,0.2-0.4,0.3-0.6,0.4c-0.2,0.1-0.5,0.1-0.8,0.1c-0.3,0-0.6-0.1-0.8-0.2     s-0.5-0.2-0.6-0.4c-0.1-0.1-0.2-0.2-0.3-0.4c-0.1-0.1-0.2-0.3-0.2-0.5c-0.1-0.2-0.1-0.4-0.1-0.6c0-0.2,0-0.5,0-0.8     c0-0.4,0.1-0.8,0.2-1.2c0.1-0.4,0.3-0.7,0.5-1c0.2-0.3,0.4-0.5,0.7-0.6c0.3-0.2,0.6-0.2,1-0.2c0.3,0,0.6,0.1,0.9,0.2     s0.5,0.3,0.8,0.5L125.3,102.8z M125.2,105.1c-0.1-0.1-0.2-0.3-0.3-0.4c-0.1-0.1-0.3-0.2-0.4-0.3c-0.2-0.1-0.4-0.1-0.6-0.1     c-0.2,0-0.4,0-0.6,0.1c-0.2,0.1-0.3,0.2-0.4,0.3c-0.1,0.1-0.2,0.2-0.3,0.4s-0.1,0.3-0.1,0.5c0,0.2,0,0.3,0.1,0.5s0.2,0.3,0.3,0.4     c0.1,0.1,0.3,0.2,0.4,0.3c0.2,0.1,0.4,0.1,0.6,0.1s0.4,0,0.6-0.1s0.3-0.2,0.4-0.3c0.1-0.1,0.2-0.3,0.3-0.4     c0.1-0.2,0.1-0.3,0.1-0.5C125.3,105.4,125.2,105.2,125.2,105.1z"/>
			<path d="M131.4,101.7h3.2v0.6h-2.7l-0.1,1.8c0.2-0.1,0.3-0.1,0.5-0.2s0.4-0.1,0.6-0.1c0.3,0,0.5,0,0.8,0.1s0.4,0.2,0.6,0.3     c0.2,0.1,0.3,0.3,0.4,0.5c0.1,0.2,0.1,0.5,0.1,0.7c0,0.3,0,0.5-0.1,0.8c-0.1,0.2-0.2,0.4-0.4,0.6c-0.2,0.2-0.4,0.3-0.6,0.4     c-0.2,0.1-0.5,0.1-0.8,0.1c-0.4,0-0.8-0.1-1.1-0.3s-0.6-0.4-0.9-0.6l0.4-0.5c0.2,0.2,0.5,0.4,0.8,0.6s0.5,0.2,0.8,0.2     c0.2,0,0.4,0,0.5-0.1c0.2-0.1,0.3-0.1,0.4-0.3c0.1-0.1,0.2-0.2,0.3-0.4s0.1-0.3,0.1-0.5c0-0.2,0-0.3-0.1-0.5s-0.2-0.3-0.3-0.4     c-0.1-0.1-0.3-0.2-0.4-0.2c-0.2-0.1-0.4-0.1-0.6-0.1c-0.2,0-0.5,0-0.6,0.1c-0.2,0.1-0.4,0.1-0.5,0.2l-0.4-0.3L131.4,101.7z"/>
		</g>
		<g>
			<path d="M113.1,102.3v-0.6h3.6v0.5l-1.7,1.9c0.2,0,0.5,0.1,0.7,0.1c0.2,0.1,0.4,0.2,0.6,0.3s0.3,0.3,0.4,0.5s0.2,0.4,0.2,0.7     c0,0.3,0,0.5-0.1,0.7c-0.1,0.2-0.2,0.4-0.4,0.5c-0.2,0.1-0.4,0.3-0.6,0.3c-0.2,0.1-0.5,0.1-0.7,0.1c-0.5,0-0.9-0.1-1.2-0.3     c-0.3-0.2-0.6-0.4-0.9-0.7l0.5-0.4c0.2,0.3,0.5,0.5,0.7,0.6c0.3,0.1,0.6,0.2,0.9,0.2c0.2,0,0.3,0,0.5-0.1c0.1,0,0.3-0.1,0.4-0.2     c0.1-0.1,0.2-0.2,0.3-0.3c0.1-0.1,0.1-0.3,0.1-0.5c0-0.4-0.1-0.6-0.4-0.8c-0.3-0.2-0.7-0.3-1.1-0.3h-0.4l-0.1-0.4l1.8-2H113.1z"/>
			<path d="M125.3,102.8c-0.2-0.2-0.4-0.3-0.6-0.4c-0.2-0.1-0.4-0.1-0.7-0.1c-0.3,0-0.5,0.1-0.7,0.2c-0.2,0.1-0.4,0.3-0.5,0.5     c-0.1,0.2-0.2,0.5-0.3,0.8s-0.1,0.6-0.1,1c0.1-0.1,0.2-0.2,0.3-0.3s0.2-0.2,0.3-0.3c0.1-0.1,0.3-0.1,0.4-0.2     c0.2,0,0.3-0.1,0.5-0.1c0.3,0,0.5,0,0.7,0.1c0.2,0.1,0.4,0.2,0.6,0.3s0.3,0.3,0.4,0.5c0.1,0.2,0.2,0.5,0.2,0.7     c0,0.3-0.1,0.5-0.2,0.8c-0.1,0.2-0.2,0.4-0.4,0.6c-0.2,0.2-0.4,0.3-0.6,0.4c-0.2,0.1-0.5,0.1-0.8,0.1c-0.3,0-0.6-0.1-0.8-0.2     s-0.5-0.2-0.6-0.4c-0.1-0.1-0.2-0.2-0.3-0.4c-0.1-0.1-0.2-0.3-0.2-0.5c-0.1-0.2-0.1-0.4-0.1-0.6c0-0.2,0-0.5,0-0.8     c0-0.4,0.1-0.8,0.2-1.2c0.1-0.4,0.3-0.7,0.5-1c0.2-0.3,0.4-0.5,0.7-0.6c0.3-0.2,0.6-0.2,1-0.2c0.3,0,0.6,0.1,0.9,0.2     s0.5,0.3,0.8,0.5L125.3,102.8z M125.2,105.1c-0.1-0.1-0.2-0.3-0.3-0.4c-0.1-0.1-0.3-0.2-0.4-0.3c-0.2-0.1-0.4-0.1-0.6-0.1     c-0.2,0-0.4,0-0.6,0.1c-0.2,0.1-0.3,0.2-0.4,0.3c-0.1,0.1-0.2,0.2-0.3,0.4s-0.1,0.3-0.1,0.5c0,0.2,0,0.3,0.1,0.5s0.2,0.3,0.3,0.4     c0.1,0.1,0.3,0.2,0.4,0.3c0.2,0.1,0.4,0.1,0.6,0.1s0.4,0,0.6-0.1s0.3-0.2,0.4-0.3c0.1-0.1,0.2-0.3,0.3-0.4     c0.1-0.2,0.1-0.3,0.1-0.5C125.3,105.4,125.2,105.2,125.2,105.1z"/>
			<path d="M131.4,101.7h3.2v0.6h-2.7l-0.1,1.8c0.2-0.1,0.3-0.1,0.5-0.2s0.4-0.1,0.6-0.1c0.3,0,0.5,0,0.8,0.1s0.4,0.2,0.6,0.3     c0.2,0.1,0.3,0.3,0.4,0.5c0.1,0.2,0.1,0.5,0.1,0.7c0,0.3,0,0.5-0.1,0.8c-0.1,0.2-0.2,0.4-0.4,0.6c-0.2,0.2-0.4,0.3-0.6,0.4     c-0.2,0.1-0.5,0.1-0.8,0.1c-0.4,0-0.8-0.1-1.1-0.3s-0.6-0.4-0.9-0.6l0.4-0.5c0.2,0.2,0.5,0.4,0.8,0.6s0.5,0.2,0.8,0.2     c0.2,0,0.4,0,0.5-0.1c0.2-0.1,0.3-0.1,0.4-0.3c0.1-0.1,0.2-0.2,0.3-0.4s0.1-0.3,0.1-0.5c0-0.2,0-0.3-0.1-0.5s-0.2-0.3-0.3-0.4     c-0.1-0.1-0.3-0.2-0.4-0.2c-0.2-0.1-0.4-0.1-0.6-0.1c-0.2,0-0.5,0-0.6,0.1c-0.2,0.1-0.4,0.1-0.5,0.2l-0.4-0.3L131.4,101.7z"/>
		</g>
	</g>
</g>
<g id="Variant_2" class="st0">
	<g class="st1">
		<circle class="st2" cx="115.4" cy="106.1" r="19.4"/>
		<path class="st3" d="M66.5,149.2c11.8,13.8,29.4,22.5,48.9,22.5c35.6,0,64.5-28.9,64.5-64.5c0-17.3-6.8-33.1-18-44.6l-0.4-0.5    l5.2-8.7h24.8V29H150l-20.6,36.6c17.2,5.7,29.7,22,29.7,41.2c0,23.9-19.4,43.3-43.3,43.3c-22.6,0-41.2-17.3-43.2-39.5l-0.1-0.6"/>
		<path class="st4" d="M83.5,135.9c-7.9,8.7-19.3,14.2-31.9,14.2c-23.7,0-43-19.2-43-43c0-1.3,0.1-2.5,0.2-3.8h20.6v2.5"/>
		<path class="st5" d="M96,107.2c0-16.3-9.1-30.5-22.5-37.8L96,29H25.4v23.7h28L34.5,90.3l3.9-2c4.6-2.2,8-4.1,12.7-4.1    c12,0,21.7,9.7,21.7,21.7s-9.7,21.7-21.7,21.7s-21.7-9.7-21.7-21.7c0-0.5,0-0.9,0-1.4"/>
		<polyline class="st6" points="83.5,73.4 108.7,28.3 137.7,28.3 118.8,63.6 129.4,65.6   "/>
	</g>
</g>
<g id="Variant_3">
	<rect x="0" y="0" class="st7" width="200" height="200"/>
	<g>
		<circle class="st8" cx="116.2" cy="106.4" r="20.4"/>
		<path class="st9" d="M64.7,151.8c12.4,14.5,30.9,23.7,51.5,23.7c37.5,0,67.9-30.4,67.9-67.9c0-18.2-7.2-34.8-18.9-47l-0.5-0.5    l5.4-9.2h26.1V25.3h-43.6l-21.7,38.5c18.2,6,31.2,23.1,31.2,43.3c0,25.2-20.4,45.6-45.6,45.6c-23.8,0-43.4-18.3-45.4-41.5    l-0.1-0.6"/>
		<path class="st10" d="M82.6,137.8c-8.3,9.2-20.3,15-33.6,15c-25,0-45.2-20.2-45.2-45.2c0-1.3,0.1-2.7,0.2-4h21.7v2.6"/>
		<path class="st11" d="M95.8,107.6c0-17.2-9.6-32.1-23.7-39.8l23.7-42.5H21.5v25h29.4L31.1,89.8l4.1-2.1c4.8-2.3,8.4-4.3,13.4-4.3    c12.6,0,22.9,10.2,22.9,22.9S61.2,129,48.5,129s-22.9-10.2-22.9-22.9c0-0.5,0-1,0-1.5"/>
		<polyline class="st12" points="82.6,72 109.2,24.6 139.7,24.6 119.8,61.7 130.9,63.8   "/>
		<polygon class="st13" points="194.3,27.7 194.3,48.3 169.9,49.8 164.3,58.3 178.6,80.9 184,110.8 175.3,143.6 150,166.4     124.6,174.9 93.7,171.6 69.2,156.5 67.4,150.6 81.9,139.6 94,148.3 103.8,152.8 118.1,154.4 133.3,151.9 144.7,145.2 154.3,135.8     161.7,120.6 164.1,106.4 161.4,91.8 153.4,77.1 142,67.4 134.2,63.2 153.2,27.7   "/>
		<polygon class="st13" points="84.1,72 109.8,26.3 135.5,26.3 118.5,61.4 134.2,67.2 148.7,77.1 158.8,95.1 160.1,112.1 154.1,129     143.1,141 132.6,146.8 118.5,150.8 106.3,149.7 90.8,141.8 79.4,131.1 74.7,119.1 93.5,105.2 101.6,123.3 113.6,128.2     129.3,124.6 136.6,113.9 136.6,96.9 127.3,87.5 114.3,84.9 100,90.5 98.6,96 94.2,90.9 85.9,77.1   "/>
		<polygon class="st13" points="24,26.3 92.2,27.7 70.7,66.8 81,75.9 89.9,88.6 93.5,108.8 73.2,121.5 68.7,100.3 65.6,92 51.1,82     37,86.7 35.2,81.4 50.8,52.2 25.1,50.2 22.7,48.3   "/>
		<polygon class="st13" points="23.6,106.4 29.2,118.3 36.1,126.8 48.5,129 63.4,123.5 70.7,119.5 80.8,139.7 64.7,150 45.2,152.6     28,147.6 14.4,136.7 5.3,119.2 5.3,105.2   "/>
	</g>
</g>
</svg>