<?xml version="1.0" encoding="utf-8"?>
<!-- Generator: Adobe Illustrator 23.0.5, SVG Export Plug-In . SVG Version: 6.00 Build 0)  -->
<svg version="1.1" id="Layer_1" xmlns="http://www.w3.org/2000/svg" xmlns:xlink="http://www.w3.org/1999/xlink" x="0px" y="0px"
	 viewBox="0 0 100 100" style="enable-background:new 0 0 100 100;" xml:space="preserve">
<style type="text/css">
	.st0{display:none;fill:#FFFFFF;}
	.st1{fill:#041735;}
	.st2{fill:#2F8F5F;stroke:#2F8F5F;stroke-width:1.0038;stroke-miterlimit:10;}
	.st3{fill:none;stroke:#041735;stroke-width:8.6327;stroke-miterlimit:10;}
	.st4{display:none;fill:#335C99;}
</style>
<rect x="0.3" class="st0" width="100" height="100"/>
<g>
	<g>
		<g>
			<path class="st1" d="M96.6,41.6c-0.9-2.6-1.6-5.2-2.7-7.8c-1.5-3.5-3.3-6.8-5.7-9.8c-2.5,0.2-4.4,1.2-5.9,3
				c14.3,19,8.9,41.7-3.2,53.9C66.2,94,46.2,97,30,88C14,79.2,5.9,60.7,10.1,43c2.1-8.9,6.7-16.4,13.9-22.2
				c10.4-8.4,22.3-11,35.6-8.3c-1-2.6-1.9-4.9-2.9-7.2c-0.7-0.1-1.3-0.2-1.8-0.3c-8.2-0.8-16.1,0.4-23.7,3.7
				C5.4,19.8-5.3,50.5,8,74.9c10.2,18.8,31.3,28.5,52.8,23.7C81.4,94,96,76.3,97.5,55.7c0.2-2.3,0.1-4.6,0.2-6.9
				C97.1,44.3,96.8,42.2,96.6,41.6C96.6,41.6,96.6,41.6,96.6,41.6z"/>
			<path class="st1" d="M90,24c-1-1.9-2.6-3.2-3.7-5c1-0.9,1.9-1.7,3.1-2.7c-4.6-1.3-8.8-2.5-13.3-3.7c0.4,4.8,0.8,9.2,1.1,13.9
				c1.5-1.2,2.7-2.2,4-3.2c1,1.2,1.9,2.3,2.8,3.4c0,0,0,0,0,0C85.8,25.5,87.9,24.9,90,24L90,24z"/>
			<path class="st1" d="M57.8,0.1c-4.5-0.2-8.2,3.2-8.3,7.7c-0.2,4.4,3.4,8.1,7.8,8.2c4.6,0.1,8-3.3,8-7.9
				C65.3,3.6,62.2,0.3,57.8,0.1L57.8,0.1z"/>
		</g>
	</g>
	<path class="st2" d="M57.6,60.3c1.7-5.4-1.1-11.1-6.1-12.5c-1.1-0.3-2.2-0.3-3.5-0.4c2.2-3.3,4.2-6.5,6.4-9.8h-6.3
		c-2.9,4.5-5.8,8.8-8.7,13.3c-0.5,0.8-1,1.8-1.3,2.7c-2,5.5,0.8,11.8,6.2,13.6C49.9,69.1,55.8,66.1,57.6,60.3L57.6,60.3z M47.7,62.6
		c-2.8,0-4.9-2.3-4.9-5.2c0-2.8,2.2-5.1,4.9-5c2.7,0.1,4.9,2.4,4.9,5.3C52.6,60.5,50.5,62.7,47.7,62.6z"/>
	<path class="st2" d="M34.9,62.1c1-2.1,1.2-4.4,0.7-6.7c-0.6-2.4-2-4.1-4.3-5.3c2.7-2.8,3.1-6.3,1.3-9.4c-1.9-3.2-5.7-4.6-9.2-3.6
		c-3.4,1-5.5,3.9-5.5,7.4h5.2c0.3-1,0.6-2,1.7-2.4c1.3-0.6,2.8-0.1,3.4,1c0.8,1.5,0.2,3.4-1.3,4.2c-0.9,0.5-1.9,0.4-3,0.5v4.9
		c5,0.8,6.6,1.9,6.7,4.8c0.1,2.4-1.6,4.5-3.8,4.9c-2.7,0.5-4.6-0.9-5.8-4.3h-5.1c-0.1,4.1,3.1,8.1,7.2,9.1
		C27.9,68.6,32.9,66.4,34.9,62.1z"/>
	<g>
		<g>
			<path class="st2" d="M82.1,56.2c0,6.4-5.2,11.5-11.5,11.5c-4.8,0-8.9-2.9-10.6-7l3.5-3.5c0.5,3.5,3.5,6.3,7.1,6.3
				c4,0,7.2-3.2,7.2-7.2s-3.3-7.2-7.2-7.2c-0.9,0-1.7,0.2-2.6,0.5l0,0h-4.5v-2.3v-9.6h15.4v4.6H68V45c0.8-0.2,1.7-0.3,2.6-0.3
				C76.9,44.7,82.1,49.9,82.1,56.2z"/>
		</g>
	</g>
	<path class="st3" d="M83,21.3c7.1,7.9,11.4,18.3,11.4,29.8c0,24.6-19.9,44.5-44.5,44.5S5.5,75.6,5.5,51S25.4,6.6,49.9,6.6
		c2.5,0,5,0.2,7.4,0.6"/>
</g>
<rect class="st4" width="100" height="100"/>
</svg>
