<?xml version="1.0" encoding="utf-8"?>
<!-- Generator: Adobe Illustrator 23.0.5, SVG Export Plug-In . SVG Version: 6.00 Build 0)  -->
<svg version="1.1" id="Layer_1" xmlns="http://www.w3.org/2000/svg" xmlns:xlink="http://www.w3.org/1999/xlink" x="0px" y="0px"
	 viewBox="0 0 1000 500" style="enable-background:new 0 0 1000 500;" xml:space="preserve">
<style type="text/css">
	.st0{display:none;fill:#FFFFFF;}
	.st1{display:none;fill:#00FF00;}
	.st2{fill:#FFFFFF;stroke:#FFFFFF;stroke-miterlimit:10;}
	.st3{fill:#FFFFFF;stroke:#FFFFFF;stroke-width:5;stroke-miterlimit:10;}
	.st4{display:none;fill:#FFFFFF;stroke:#FFFFFF;stroke-width:43;stroke-miterlimit:10;}
</style>
<circle class="st0" cx="759.5" cy="262.5" r="214.5"/>
<rect x="-0.4" y="0.3" class="st1" width="1000" height="500"/>
<g>
	<g>
		<path class="st2" d="M989.4,208.4c-4.3-12.9-7.8-26.1-13.3-38.6c-7.7-17.3-16.4-34.1-28.3-48.9c-12.5,0.9-22.1,5.8-29.3,15.2
			c71,94.7,44.4,207.7-15.9,268.5c-64.6,65.1-164.3,79.8-245.1,35.1c-79.5-44-120.1-135.9-98.8-224.4
			c10.7-44.5,33.6-81.6,69.1-110.4C679.6,63,738.8,50.3,804.9,63.6c-5-12.8-9.6-24.3-14.2-36.1c-3.4-0.5-6.3-1-9.2-1.3
			c-41-4.1-80.4,2-118.2,18.3c-128.1,55.2-181.6,208.1-115.5,330c50.9,93.9,155.7,142,262.8,118.1c102.7-23,175.8-111.1,183.3-213.9
			c0.8-11.5,0.7-23,1.1-34.6C991.8,222,990.1,211.2,989.4,208.4C989.4,208.4,989.4,208.4,989.4,208.4z"/>
		<path class="st2" d="M956.2,121c-4.8-9.3-13-16-18.5-25c5-4.4,9.6-8.4,15.4-13.4c-22.8-6.4-43.9-12.3-66.3-18.5
			c1.9,23.8,3.7,45.6,5.7,69.4c7.5-6.1,13.4-10.9,19.7-16.1c5,6.1,9.4,11.5,13.8,16.9c0,0,0,0,0,0
			C935.4,128.5,946.1,125.3,956.2,121L956.2,121z"/>
		<path class="st2" d="M796,1.9c-22.3-0.9-40.7,16-41.5,38.1c-0.8,21.9,16.9,40.4,39.1,40.7c22.7,0.3,39.8-16.6,39.9-39.4
			C833.4,19.2,817.8,2.8,796,1.9L796,1.9z"/>
	</g>
</g>
<path class="st3" d="M794.8,301.6c8.2-26.7-5.6-55.1-30.5-62.4c-5.4-1.6-11-1.7-17.5-2.1c10.8-16.5,21.1-32.2,31.9-48.7h-31.3
	c-14.6,22.2-29,44-43.2,66c-2.7,4.2-4.8,8.8-6.5,13.5c-10.2,27.5,4.1,58.7,30.8,67.9C756.8,345.4,785.9,330.4,794.8,301.6
	L794.8,301.6z M745.7,313.3c-13.7-0.1-24.5-11.6-24.5-26.1c0-14,11.2-25.4,24.6-25.1c13.7,0.3,24.6,12,24.5,26.3
	C770.2,302.4,759.4,313.4,745.7,313.3z"/>
<path class="st3" d="M682.1,310.7c5.1-10.7,6.2-21.9,3.5-33.5c-2.8-12.1-10.2-20.6-21.3-26.2c13.4-14,15.6-31.4,6.3-46.7
	c-9.7-15.7-28.1-22.9-45.9-17.7c-16.8,4.9-27.6,19.3-27.3,36.8H623c1.6-5,3.1-9.8,8.2-12.1c6.2-2.8,13.9-0.5,16.8,5.1
	c3.9,7.6,1,17-6.3,21c-4.6,2.5-9.6,2.2-14.8,2.5v24.3c25.1,3.9,32.8,9.5,33.2,24.1c0.3,11.9-7.7,22.3-18.8,24.5
	c-13.4,2.5-22.8-4.4-29.1-21.3h-25.3c-0.5,20.5,15.2,40.2,36.1,45.4C647,343,671.9,332.1,682.1,310.7z"/>
<g>
	<g>
		<path class="st3" d="M917,281.3c0,31.8-25.8,57.4-57.4,57.4c-23.8,0-44.1-14.6-52.9-35.1l17.4-17.4c2.3,17.6,17.4,31.2,35.5,31.2
			c19.9,0,36.1-16,36.1-35.9c0-19.9-16.2-35.9-36.1-35.9c-4.5,0-8.6,0.8-12.7,2.3l-0.2,0.2h-22.6v-11.7v-48h76.7v22.8h-53.9v14.4
			c4.1-1,8.4-1.4,12.7-1.4C891.1,224,917,249.7,917,281.3z"/>
	</g>
</g>
<g>
	<polygon class="st2" points="305.5,217.6 328.7,217.6 317.2,188.2 	"/>
	<polygon class="st2" points="294.1,347.3 328.4,347.3 311.3,309.7 	"/>
	<path class="st2" d="M400.9,317.5c-2.5-2.5-5.6-4.6-9.3-6.1c-3.7-1.5-7.7-2.2-12.3-2.2h-16.8v56.3h16.8c4.5,0,8.6-0.7,12.3-2.2
		c3.7-1.5,6.7-3.4,9.3-6c2.5-2.5,4.5-5.5,5.9-8.9c1.4-3.4,2.1-7,2.1-10.9v-0.2c0-3.9-0.7-7.5-2.1-10.9
		C405.4,323.1,403.5,320.1,400.9,317.5z"/>
	<path class="st2" d="M203.5,178.7c-15.7,0-26.2,12.7-26.2,27.7v0.3c0,14.9,10.8,28,26.5,28c15.8,0,26.3-12.7,26.3-27.7v-0.3
		C230.1,191.7,219.3,178.7,203.5,178.7z"/>
	<polygon class="st2" points="147.4,347.3 181.7,347.3 164.6,309.7 	"/>
	<polygon class="st2" points="435.9,347.3 470.2,347.3 453.1,309.7 	"/>
	<path class="st2" d="M619.6,105.8V83.5H2.3v356.9h617.2v-15.5c-45.9-38.1-75-96-77.8-159.7l0,0
		C538.9,201.9,571.3,143.9,619.6,105.8z M385.4,154.9h26.8l42.6,54.8v-54.8h28.4v103.6H458l-44.2-56.8v56.8h-28.4V154.9z
		 M66.2,154.9h28.7v78.4H145v25.2H66.2V154.9z M119.1,364.3c-1.8,1.4-3.8,2.6-5.8,3.6c-2.1,1-4.3,1.8-6.7,2.3
		c-2.4,0.6-5,0.8-7.9,0.8c-4.6,0-8.9-0.9-12.9-2.6c-4-1.7-7.4-4.1-10.3-7.1c-2.9-3-5.1-6.5-6.7-10.6c-1.6-4.1-2.4-8.4-2.4-13.1v-0.2
		c0-4.6,0.8-8.9,2.5-13c1.6-4.1,3.9-7.7,6.8-10.7c2.9-3.1,6.3-5.5,10.3-7.2c4-1.8,8.3-2.6,13-2.6c2.9,0,5.5,0.2,7.9,0.7
		c2.4,0.5,4.5,1.2,6.5,2.1c2,0.9,3.9,2,5.7,3.3c1.8,1.3,3.5,2.7,5.2,4.2l-3.4,3.5c-1.4-1.4-2.9-2.6-4.5-3.8c-1.5-1.2-3.2-2.2-5-3
		s-3.7-1.5-5.8-2c-2.1-0.5-4.3-0.7-6.7-0.7c-3.9,0-7.5,0.7-10.9,2.2c-3.3,1.5-6.2,3.5-8.7,6.2c-2.4,2.6-4.4,5.7-5.8,9.2
		c-1.4,3.5-2.1,7.3-2.1,11.4v0.2c0,4.1,0.7,7.9,2.1,11.5c1.4,3.6,3.4,6.7,5.8,9.3c2.4,2.6,5.3,4.7,8.7,6.2c3.3,1.5,7,2.3,10.9,2.3
		c4.7,0,8.8-0.9,12.3-2.6c3.5-1.7,6.8-4.2,10.1-7.5l3.3,3.2C122.7,361.3,120.9,362.9,119.1,364.3z M192,369.9l-8.3-18.2h-38.3
		l-8.3,18.2h-5l30.3-65.5h4.6l30.3,65.5H192z M147.9,207v-0.3c0-29.7,24-53.9,55.9-53.9s55.6,23.8,55.6,53.6v0.3
		c0,29.7-24,53.9-55.9,53.9C171.5,260.5,147.9,236.7,147.9,207z M265.1,369.9h-3.6l-45.8-57.8v57.8H211v-65h4.5l44.8,56.5v-56.5h4.6
		V369.9z M338.7,369.9l-8.3-18.2h-38.3l-8.3,18.2h-5l30.3-65.5h4.6l30.3,65.5H338.7z M337,240h-40l-7.4,18.5h-30.2l44.1-104.3h27.7
		l44.1,104.3h-30.8L337,240z M413.9,337.4c0,4.6-0.8,8.9-2.5,12.8c-1.7,4-4,7.4-7.1,10.3c-3.1,2.9-6.7,5.2-11,6.9
		c-4.2,1.7-8.9,2.5-14,2.5h-21.6v-65h21.6c5.1,0,9.7,0.8,14,2.5c4.2,1.6,7.9,3.9,11,6.8c3.1,2.9,5.4,6.3,7.1,10.3
		c1.7,3.9,2.5,8.2,2.5,12.8V337.4z M480.5,369.9l-8.3-18.2h-38.3l-8.3,18.2h-5l30.3-65.5h4.6l30.3,65.5H480.5z"/>
</g>
<path class="st4" d="M921.3,107.1c35.4,39.2,57,91.2,57,148.3c0,122.3-99.1,221.4-221.4,221.4s-221.4-99.1-221.4-221.4
	S634.5,33.9,756.8,33.9c12.6,0,25,1.1,37.1,3.1"/>
</svg>
